<svg xmlns="http://www.w3.org/2000/svg" version="1.1" xmlns:xlink="http://www.w3.org/1999/xlink" xmlns:svgjs="http://svgjs.dev/svgjs" width="128" height="128" viewBox="0 0 128 128"><g transform="matrix(0.8046875,0,0,0.8046875,12.760752631578946,37.24381718482819)"><svg viewBox="0 0 95 50" data-background-color="#ffffff" preserveAspectRatio="xMidYMid meet" height="67" width="128" xmlns="http://www.w3.org/2000/svg" xmlns:xlink="http://www.w3.org/1999/xlink"><g id="tight-bounds" transform="matrix(1,0,0,1,-0.24049999999999727,-0.18626720517322326)"><svg viewBox="0 0 95.481 50.37253441034643" height="50.37253441034643" width="95.481"><g><svg viewBox="0 0 95.481 50.37253441034643" height="50.37253441034643" width="95.481"><g><svg viewBox="0 0 95.481 50.37253441034643" height="50.37253441034643" width="95.481"><g><svg viewBox="0 0 95.481 50.37253441034643" height="50.37253441034643" width="95.481"><g><svg viewBox="0 0 95.481 50.37253441034643" height="50.37253441034643" width="95.481"><g><svg viewBox="0 0 95.481 50.37253441034643" height="50.37253441034643" width="95.481"><g><svg xmlns="http://www.w3.org/2000/svg" xmlns:xlink="http://www.w3.org/1999/xlink" version="1.1" x="0" y="0" viewBox="5.319999999999993 29.753 90.002 47.482" enable-background="new 0 0 100 100" xml:space="preserve" height="50.37253441034643" width="95.481" class="icon-icon-0" data-fill-palette-color="accent" id="icon-0"><polygon points="21.866,64.073 29.081,56.856 36.253,64.073 39.657,60.665 32.444,53.497 39.657,46.324 36.253,42.916   29.081,50.086 21.958,42.916 18.55,46.324 25.677,53.497 18.46,60.665 " fill="#eb5353" data-fill-palette-color="accent"></polygon><polygon points="84.272,47.796 80.868,44.388 69.423,55.832 62.298,48.663 58.89,52.069 69.423,62.602 " fill="#36ae7c" data-fill-palette-color="accent"></polygon><path d="M29.06 77.235c9.318 0 17.377-5.41 21.26-13.242 3.885 7.832 11.943 13.242 21.262 13.242 13.092 0 23.74-10.648 23.74-23.741s-10.648-23.741-23.74-23.741c-9.318 0-17.377 5.41-21.262 13.242-3.883-7.832-11.941-13.242-21.26-13.242-13.092 0-23.74 10.648-23.74 23.741S15.968 77.235 29.06 77.235zM71.581 35.754c9.783 0 17.74 7.957 17.74 17.741s-7.957 17.741-17.74 17.741c-9.781 0-17.74-7.957-17.74-17.741S61.8 35.754 71.581 35.754zM29.06 35.754c9.781 0 17.74 7.957 17.74 17.741s-7.959 17.741-17.74 17.741c-9.783 0-17.74-7.957-17.74-17.741S19.276 35.754 29.06 35.754z" fill="#FFD700" data-fill-palette-color="accent"></path></svg></g></svg></g></svg></g></svg></g></svg></g><g></g></svg></g><defs></defs></svg><rect width="95.481" height="50.37253441034643" fill="none" stroke="none" visibility="hidden"></rect></g></svg></g></svg>